<?xml version="1.0" encoding="UTF-8"?>
<svg id="Layer_2" data-name="Layer 2" xmlns="http://www.w3.org/2000/svg" viewBox="0 0 1050.52 191.16">
  <defs>
    <style>
      .cls-1 {
        fill: #fff;
      }
    </style>
  </defs>
  <g id="Layer_1-2" data-name="Layer 1">
    <g>
      <rect class="cls-1" x="483.18" y="26.69" width="3.34" height="155.29"/>
      <path class="cls-1" d="M443.48,155.1c0-4.88,3.69-8.45,8.49-8.45s8.53,3.57,8.53,8.45-3.69,8.53-8.53,8.53-8.49-3.65-8.49-8.53ZM459.24,155.1c0-4.38-2.84-7.38-7.26-7.38s-7.22,3-7.22,7.38,2.88,7.45,7.22,7.45,7.26-3.04,7.26-7.45ZM450.83,158.48h1.39v.88h-4.3v-.88h1.38v-6.95h-1.38v-.92h4.45c2.65,0,3.42,1.19,3.42,2.3,0,.92-.69,1.88-2.5,2.12v.11c1.46.23,1.96.92,2.08,1.88l.07.88c.04.5.15.65.39.65s.42-.15.62-.69l.62.23c-.27.84-.77,1.46-1.61,1.46-.96,0-1.53-.5-1.61-1.81l-.04-.84c-.04-.92-.39-1.39-1.54-1.39h-1.42v2.96h0ZM452.2,154.68c1.23,0,1.84-.58,1.84-1.65,0-1-.54-1.5-1.73-1.5h-1.5v3.15h1.39Z"/>
      <path class="cls-1" d="M396.59,48.88v6.23c16,1.85,19.55,7.75,19.55,23.41v49.27h-.84l-59.98-78.92h-78.54v6.23c16,1.85,19.55,7.75,19.55,23.41v41.95c0,12.64-2.53,18.87-8.09,24.6-4.72,4.72-11.12,7.24-19.38,7.24-18.03,0-29.14-8.42-29.14-28.13v-61.65c0-5.56,3.03-6.74,14.66-7.24v-6.4h-68.29c-3.46,0-10.6.02-14.02-.51-3.51-.54-7.64-2.08-11.1-2.73-3.85-.72-7.78-.93-11.7-.93-21.69,0-36.35,15.48-36.35,36.71s16.85,27.29,33.86,32.69c19.37,6.4,26.79,10.78,26.79,22.4,0,8.93-6.06,18.87-20.72,18.87s-24.41-8.55-32.99-27.58h-8.28v34.83h7.16l5.65-5.05c6.57,3.2,17.02,5.05,26.11,5.05,28.47,0,39.59-19.04,39.59-37.74,0-20.89-16.51-27.46-32.01-32.52-18.53-5.9-26.79-9.61-26.79-21.06s7.58-17.69,17.86-17.69c12.3,0,22.61,4.25,28.12,19.91h7.08v-3.07c0-8.21,6.22-15.03,16.07-15.03s16.07,6.83,16.07,15.03v54.58c0,24.77,17.18,37.4,45.49,37.4s42.96-16.34,42.96-38.07v-53.9c0-8.21,6.17-15.09,16.02-15.09s16.02,6.89,16.02,15.09v59.47c0,16-2.19,21.39-17.18,23.59v6.23h43.64v-6.23c-16.18-2.02-18.19-7.75-18.19-23.59v-56.41l.62.02,67.53,89.09h11.04v-84.09c0-15.67,1.18-21.23,16.17-23.41v-6.23h-43.98Z"/>
      <path class="cls-1" d="M61.95,152.1c-17.82,0-36.32-16.13-36.32-49.73s15.27-49.56,32.58-49.56c14.77,0,25.96,12.39,32.75,32.93h7.64v-40.22h-6.79l-4.92,7.3c-6.95-3.9-17.48-7.3-28.17-7.3C25.46,45.52,0,70.8,0,105.09s20.54,57.53,55.84,57.53c24.27,0,39.39-13.46,47.35-31.77l-6.45-3.05c-7.98,16.13-19.01,24.3-34.79,24.3h0Z"/>
    </g>
    <g>
      <g>
        <path class="cls-1" d="M812.52,183.73c-3.48,4.71-8.98,7.08-14.48,7.08-12.11,0-17.16-8.77-17.16-18.08,0-11.44,6.96-18.08,17.16-18.08,5.6,0,11.1,2.33,14.48,6.98l-4.36,3.48c-2.05-3.01-6.31-5.22-10.07-5.22-7.64,0-11.13,5.07-11.13,12.84s3.54,12.84,11.13,12.84c3.57,0,8.02-2.31,10.07-5.22l4.36,3.38Z"/>
        <path class="cls-1" d="M824.36,169.76h16.86v5.05h-16.86v10.11h18.27v5.15h-24.02v-34.68h24.02v5.15h-18.27v9.21Z"/>
        <path class="cls-1" d="M855.23,167.94v22.12h-5.75v-35.77l23.21,23.38v-22.29h5.75v35.77l-23.21-23.21Z"/>
        <path class="cls-1" d="M900.89,160.44v29.62h-5.75v-29.62h-10.6v-5.05h27v5.05h-10.65Z"/>
        <path class="cls-1" d="M923.38,169.76h16.86v5.05h-16.86v10.11h18.27v5.15h-24.02v-34.68h24.02v5.15h-18.27v9.21Z"/>
        <path class="cls-1" d="M960.98,179.53c-.65.06-1.32.09-1.98.09h-4.74v10.45h-5.75v-34.68h9.79c9.08,0,14.38,4.36,14.38,12.24,0,5.41-2.47,8.69-6.02,10.42l7.03,12.02h-6.56l-6.14-10.54ZM957.23,174.66c6.81,0,9.69-1.42,9.69-7.11s-3.68-7.2-9.69-7.2h-2.98v14.32h2.98Z"/>
      </g>
      <path class="cls-1" d="M975.44,0l-5,44.92c-.27,2.41-2.44,4.14-4.85,3.88-2.72-.27-4.54-3.09-3.7-5.68,0,0,13.55-43.12,13.55-43.12h0Z"/>
      <path class="cls-1" d="M1050.52,115.17l-44.92-5c-2.41-.27-4.14-2.44-3.88-4.85.27-2.72,3.09-4.54,5.68-3.7,0,0,43.12,13.55,43.12,13.55h0Z"/>
      <path class="cls-1" d="M1036.83,42.04l-35.3,28.23c-1.89,1.51-4.66,1.21-6.17-.69-1.73-2.11-1.03-5.4,1.4-6.63,0,0,40.07-20.91,40.07-20.91h0Z"/>
      <path class="cls-1" d="M923.21,53.76l-20.91-40.07,28.23,35.3c3.73,5.17-4.09,10.27-7.32,4.77h0Z"/>
      <path class="cls-1" d="M940.74,16.8l9.34,26.19c.82,2.3-.38,4.83-2.68,5.65-2.77,1.04-5.87-1.1-5.91-4.05,0,0-.76-27.79-.76-27.79h0Z"/>
      <path class="cls-1" d="M1033.72,80.47l-26.19,9.34c-2.3.82-4.83-.38-5.65-2.68-1.04-2.77,1.1-5.87,4.05-5.91,0,0,27.79-.76,27.79-.76h0Z"/>
      <path class="cls-1" d="M1000.41,29.38l-11.91,25.12c-1.05,2.21-3.68,3.15-5.89,2.1-2.7-1.22-3.37-4.93-1.32-7.04,0,0,19.12-20.19,19.12-20.19h0Z"/>
      <path class="cls-1" d="M1021.14,140.15l-25.12-11.91c-2.21-1.05-3.15-3.68-2.1-5.89,1.22-2.7,4.93-3.37,7.04-1.32,0,0,20.19,19.12,20.19,19.12h0Z"/>
      <g>
        <path class="cls-1" d="M602.06,128.54c-8.03,11.05-20.7,16.63-33.38,16.63-27.92,0-39.55-20.59-39.55-42.46,0-26.87,16.05-42.45,39.55-42.45,12.91,0,25.59,5.47,33.38,16.4l-14.89,11.98c-3.61-5.58-11.28-9.65-17.91-9.65-14.07,0-20.36,9.31-20.36,23.73s6.4,23.73,20.36,23.73c6.28,0,14.31-4.3,17.91-9.65l14.89,11.75Z"/>
        <path class="cls-1" d="M602.06,128.54c-8.03,11.06-20.7,16.64-33.38,16.64-27.92,0-39.55-20.59-39.55-42.46,0-5.59.7-10.71,2.02-15.28,3.41-11.85,13.92-20.52,26.25-20.78,20.3-.46,29.49,21.3,29.76,21.97-3.62-5.57-11.29-9.63-17.9-9.63-14.08,0-20.36,9.3-20.36,23.72s6.4,23.73,20.36,23.73c6.28,0,14.31-4.31,17.91-9.66l14.89,11.74Z"/>
        <path class="cls-1" d="M587.17,116.8c-3.61,5.34-11.63,9.66-17.91,9.66-12.89,0-19.32-8.05-20.23-20.54,0,0-.01,0-.01,0,.4,35.16,33.77,36.89,53.04,22.63h0s0,0,0,0l-14.89-11.74Z"/>
      </g>
      <g>
        <path class="cls-1" d="M727.37,120.75v22.68h-19.77V62.01h29.08c20.94,0,33.15,11.17,33.15,29.66,0,12.35-5.37,20.3-13.19,24.72l15.52,27.04h-21.63l-12.97-22.68h-10.17ZM734.23,104.47c7.33,0,15.82.58,15.82-12.79s-10.35-13.38-15.82-13.38h-6.86v26.17h6.86Z"/>
        <path class="cls-1" d="M727.37,120.75v22.68h-19.77v-5.07c0-9.73,7.88-17.61,17.61-17.61h2.16Z"/>
        <path class="cls-1" d="M772.15,143.43l-15.52-27.04c-3.3,2.2-13,4.36-19.09,4.36l12.97,22.68h21.63Z"/>
      </g>
      <g>
        <path class="cls-1" d="M1019,190.07l-42.29-73.67c7.82-4.42,13.19-12.38,13.19-24.72,0-18.49-12.21-29.66-33.15-29.66h-102.36v81.42h61.88v-18.61h-42.11v-13.96h38.85v-17.45h-38.85v-12.79h80.15c5.47,0,15.82-1.98,15.82,11.05s-8.49,12.79-15.82,12.79h-6.86v-11.05h-19.77v50.02h19.77v-22.68h10.17l39.65,69.32h21.73Z"/>
        <path class="cls-1" d="M947.45,120.75s-19.77-1.39-19.77,14.17v8.51h19.77v-22.68Z"/>
        <path class="cls-1" d="M957.63,120.75c5.01,0,13.66-.88,19.09-4.36l42.29,73.67h-21.73l-39.65-69.32Z"/>
        <path class="cls-1" d="M874.17,124.82c0,4.66.9,18.61,17.23,18.61h24.87v-18.61h-42.11Z"/>
        <path class="cls-1" d="M874.17,80.62c0-4.66.9-18.61,17.23-18.61h24.87v18.61h-42.11Z"/>
        <rect class="cls-1" x="874.17" y="93.42" width="38.85" height="17.45"/>
      </g>
      <g>
        <path class="cls-1" d="M800.65,93.42h38.85v17.45h-38.85v13.96h42.11v18.61h-61.88V62.01h61.88v18.61h-42.11v12.79Z"/>
        <g>
          <path class="cls-1" d="M800.65,124.82c0,4.66.9,18.61,17.23,18.61h24.87v-18.61h-42.11Z"/>
          <path class="cls-1" d="M800.65,80.62c0-4.66.9-18.61,17.23-18.61h24.87v18.61h-42.11Z"/>
          <rect class="cls-1" x="800.65" y="93.42" width="38.85" height="17.45"/>
        </g>
      </g>
      <g>
        <polygon class="cls-1" points="643.74 61.65 603.42 143.43 621.87 143.43 651.85 81.68 681.82 143.43 700.28 143.43 659.95 61.65 643.74 61.65"/>
        <g>
          <polygon class="cls-1" points="621.87 143.43 644.18 143.43 644.18 127.7 627.31 132.22 627.31 132.22 621.87 143.43"/>
          <polygon class="cls-1" points="659.51 127.7 659.51 143.43 683.73 143.43 683.73 127.7 676.38 132.22 659.51 127.7"/>
        </g>
        <path class="cls-1" d="M651.85,81.68s8.03-20.19,12.93-10.24c4.91,9.95,35.5,71.99,35.5,71.99l-26.09-15.73-22.34-46.02Z"/>
        <path class="cls-1" d="M659.51,143.43s17.01-1.38,16.87-11.21l-16.87-4.52v15.73Z"/>
      </g>
    </g>
  </g>
</svg>